<svg width="132" height="132" viewBox="0 0 132 132" fill="none" xmlns="http://www.w3.org/2000/svg"><path d="M15.904 106.252C7.002 95.25 1.666 81.26 1.666 66c0-23.5 12.662-44.012 31.517-55.153M26.99 117.034a58.364 58.364 0 0 1-2.046-1.63 60.806 60.806 0 0 1-5.363-4.977M111.448 21.27c11.28 11.527 18.218 27.313 18.218 44.73 0 18.274-7.658 34.778-19.96 46.445M98.012 10.764a62.052 62.052 0 0 1 8.46 5.944" stroke="#12181F" stroke-width="3.317" stroke-miterlimit="10" stroke-linecap="round" stroke-linejoin="round"/><path d="M65.556 14.634l-10.643 15.4L65.556 56.24l10.616-26.207-10.616-15.4zM54.913 30.033l-2.654-15.4-10.617 15.4M52.258 14.634h13.298M41.643 30.033L65.556 56.24M41.643 30.033h24.134M76.394 30.033l2.68-15.4 10.617 15.4M79.075 14.634H65.777M89.69 30.033L65.557 56.24M89.69 30.033H65.557" stroke="#009FE3" stroke-width="3.317" stroke-miterlimit="10" stroke-linecap="round" stroke-linejoin="round"/><path d="M65.666 66.69c17.864 0 32.346-14.48 32.346-32.344S83.53 2 65.666 2C47.802 2 33.32 16.482 33.32 34.346c0 17.864 14.482 32.345 32.346 32.345zM129.667 130.028h-128" stroke="#12181F" stroke-width="3.317" stroke-miterlimit="10" stroke-linecap="round" stroke-linejoin="round"/><path d="M97.984 66.664H33.32v15.84h64.664v-15.84zM92.483 70.423v8.322M38.85 70.423v8.322M47.144 70.423v8.322M65.666 70.423v8.322M81.424 70.423v8.322M92.456 82.505H27.791v15.84h64.663v-15.84zM86.954 86.264v8.322M33.32 86.264v8.322M41.615 86.264v8.322M60.138 86.264v8.322M75.895 86.264v8.322M103.514 98.346H38.85v15.84h64.664v-15.84zM98.012 102.105v8.322M44.38 102.105v8.322M52.673 102.105v8.322M71.196 102.105v8.322M86.954 102.105v8.322M97.984 114.187H33.32v15.84h64.664v-15.84zM92.483 117.947v8.32M38.85 117.947v8.32M47.144 117.947v8.32M65.666 117.947v8.32M81.424 117.947v8.32" stroke="#12181F" stroke-width="3.317" stroke-miterlimit="10" stroke-linecap="round" stroke-linejoin="round"/></svg>