<svg width="132" height="132" viewBox="0 0 132 132" fill="none" xmlns="http://www.w3.org/2000/svg"><path d="M125.718 58.444l-8.924-.056c-1.99 0-3.702-1.38-4.172-3.315a36.842 36.842 0 0 0-.663-2.514c-.554-1.907.275-3.952 1.988-4.92l7.736-4.42c2.072-1.187 2.79-3.812 1.602-5.856l-3.508-6.16c-1.188-2.073-3.813-2.792-5.857-1.604l-7.763 4.42a4.28 4.28 0 0 1-5.25-.773c-.58-.635-1.215-1.243-1.823-1.85a4.276 4.276 0 0 1-.718-5.278l4.503-7.71c1.187-2.044.497-4.668-1.548-5.884l-6.133-3.59c-2.046-1.19-4.67-.5-5.886 1.546L84.8 18.19c-.994 1.713-3.038 2.514-4.945 1.96-.83-.247-1.657-.468-2.514-.69a4.262 4.262 0 0 1-3.26-4.2l.056-8.922c0-2.376-1.906-4.31-4.282-4.31L62.754 2c-2.376 0-4.31 1.906-4.31 4.282l-.056 8.924c0 1.99-1.38 3.702-3.315 4.172-.856.193-1.685.414-2.514.663-1.907.554-3.952-.275-4.92-1.988l-4.42-7.736c-1.187-2.072-3.812-2.79-5.856-1.602l-6.16 3.508C29.13 13.41 28.41 16.035 29.6 18.08l4.42 7.763a4.28 4.28 0 0 1-.773 5.25c-.635.58-1.243 1.215-1.85 1.823a4.275 4.275 0 0 1-5.278.718l-7.71-4.503c-2.044-1.187-4.668-.497-5.884 1.548l-3.59 6.133c-1.19 2.046-.5 4.67 1.546 5.886L18.19 47.2c1.713.994 2.514 3.038 1.96 4.945a66.8 66.8 0 0 0-.69 2.514 4.262 4.262 0 0 1-4.2 3.26l-8.922-.056c-2.376 0-4.31 1.906-4.31 4.282L2 69.246c0 2.376 1.906 4.31 4.282 4.31l8.924.056c1.99 0 3.702 1.38 4.172 3.315.193.856.414 1.685.663 2.514.553 1.907-.275 3.952-1.988 4.92l-7.736 4.42c-2.072 1.187-2.79 3.812-1.602 5.856l3.508 6.16c1.188 2.073 3.813 2.792 5.857 1.604l7.763-4.42a4.28 4.28 0 0 1 5.25.773c.58.635 1.215 1.243 1.823 1.85a4.276 4.276 0 0 1 .718 5.278l-4.503 7.71c-1.187 2.043-.497 4.668 1.548 5.884l6.133 3.59c2.046 1.19 4.67.5 5.886-1.546l4.503-7.708c.994-1.713 3.038-2.514 4.945-1.962.828.25 1.657.47 2.514.69a4.262 4.262 0 0 1 3.26 4.2l-.056 8.924c0 2.376 1.906 4.31 4.282 4.31l7.1.028c2.376 0 4.31-1.906 4.31-4.282l.056-8.924c0-1.99 1.38-3.702 3.315-4.172a36.824 36.824 0 0 0 2.514-.663c1.907-.554 3.952.275 4.92 1.988l4.42 7.736c1.187 2.072 3.812 2.79 5.856 1.602l6.16-3.508c2.073-1.188 2.792-3.813 1.604-5.857l-4.42-7.763a4.28 4.28 0 0 1 .773-5.25c.635-.58 1.243-1.215 1.85-1.823a4.275 4.275 0 0 1 5.278-.718l7.71 4.503c2.043 1.187 4.668.497 5.884-1.548l3.59-6.133c1.19-2.046.5-4.67-1.546-5.886L113.81 84.8c-1.713-.994-2.514-3.038-1.962-4.945.25-.83.47-1.657.69-2.514a4.262 4.262 0 0 1 4.2-3.26l8.924.056c2.376 0 4.31-1.906 4.31-4.282l.028-7.1c0-2.35-1.906-4.283-4.282-4.31z" stroke="#12181F" stroke-width="3.315" stroke-miterlimit="10" stroke-linecap="round" stroke-linejoin="round"/><path d="M65.848 40.07L51.205 61.318l14.643 36.137 14.67-36.137-14.67-21.246zM51.205 61.317L47.503 40.07 32.86 61.318M47.503 40.07h18.345M32.86 61.317l32.988 36.137M32.86 61.317h33.32M80.822 61.317l3.675-21.246 14.67 21.247M84.496 40.07H66.18M99.167 61.317l-33.32 36.137M99.167 61.317h-33.32" stroke="#009FE3" stroke-width="3.315" stroke-miterlimit="10" stroke-linecap="round" stroke-linejoin="round"/></svg>