<?xml version="1.0" encoding="UTF-8" standalone="no"?>
<svg
   width="84"
   height="66"
   viewBox="0 0 84 66"
   fill="none"
   version="1.1"
   id="svg232"
   xml:space="preserve"
   sodipodi:docname="cdm-logo-dark.svg"
   inkscape:version="1.2 (dc2aedaf03, 2022-05-15)"
   xmlns:inkscape="http://www.inkscape.org/namespaces/inkscape"
   xmlns:sodipodi="http://sodipodi.sourceforge.net/DTD/sodipodi-0.dtd"
   xmlns="http://www.w3.org/2000/svg"
   xmlns:svg="http://www.w3.org/2000/svg"><sodipodi:namedview
     id="namedview187"
     pagecolor="#ffffff"
     bordercolor="#000000"
     borderopacity="0.25"
     inkscape:showpageshadow="2"
     inkscape:pageopacity="0.0"
     inkscape:pagecheckerboard="0"
     inkscape:deskcolor="#d1d1d1"
     showgrid="false"
     inkscape:zoom="7.6"
     inkscape:cx="19.934211"
     inkscape:cy="33.486842"
     inkscape:window-width="2400"
     inkscape:window-height="1261"
     inkscape:window-x="2391"
     inkscape:window-y="-9"
     inkscape:window-maximized="1"
     inkscape:current-layer="svg232" /><defs
     id="defs236" /><path
     style="fill:#000000;stroke-width:0.0332675"
     d="m 30.451355,65.102075 c -0.163347,-0.08219 -0.442956,-0.216298 -0.621352,-0.298043 l -0.324358,-0.148625 v -0.218329 c 0,-0.120073 0.05991,-0.551424 0.133137,-0.958548 0.201856,-1.122279 0.395396,-2.442462 0.698645,-4.765589 0.05732,-0.439131 0.139826,-1.008005 0.183343,-1.264165 0.04352,-0.256159 0.09573,-0.585507 0.11603,-0.731884 0.05382,-0.388058 0.196828,-1.076842 0.250005,-1.204113 0.05974,-0.142971 0.162994,-0.144877 0.335851,-0.0061 0.07112,0.05706 0.172196,0.119004 0.224592,0.13764 0.09316,0.03313 0.09482,0.03802 0.07531,0.2206 -0.01094,0.102688 -0.03516,0.516066 -0.05376,0.918602 -0.01859,0.402537 -0.04866,0.881588 -0.06679,1.064559 -0.05225,0.526618 -0.103899,2.177842 -0.07001,2.238366 0.02464,0.04402 0.08898,-0.0055 0.360322,-0.277335 0.263188,-0.263659 0.417786,-0.46279 0.760557,-0.97964 0.587419,-0.885754 0.725681,-1.181941 0.876326,-1.877248 0.09636,-0.444779 0.116364,-0.805315 0.07081,-1.276665 -0.07081,-0.732643 -0.251575,-1.225932 -0.512488,-1.398597 -0.170043,-0.112527 -0.49455,-0.13665 -0.768185,-0.0571 -0.275467,0.08008 -0.919178,0.418611 -1.282984,0.674727 -0.874423,0.615591 -2.049964,2.097055 -2.275794,2.868046 -0.0291,0.09938 -0.05293,0.261791 -0.05293,0.360911 0,0.157348 0.01262,0.19205 0.0998,0.273449 0.117627,0.109874 0.123229,0.13307 0.03217,0.13307 -0.110763,0 -0.387044,-0.157168 -0.46245,-0.263066 -0.09008,-0.126499 -0.147701,-0.437254 -0.122005,-0.65793 0.07316,-0.628233 0.829903,-1.966264 1.624033,-2.871496 0.404235,-0.460791 1.030787,-0.946765 1.568086,-1.216265 0.249193,-0.124992 0.324771,-0.147701 0.491523,-0.147701 0.390117,0 0.794426,0.213786 1.472379,0.778546 0.899615,0.749412 1.124386,1.075004 1.322773,1.916119 0.172072,0.729542 0.15806,1.508301 -0.04014,2.230268 -0.110569,0.40277 -0.390609,0.936879 -0.85744,1.635342 -0.626828,0.937848 -0.979899,1.295956 -1.862247,1.888814 -0.311266,0.209143 -0.449157,0.324083 -0.525087,0.437691 -0.09931,0.148599 -0.103795,0.171041 -0.126408,0.632083 -0.03769,0.76854 -0.145854,1.677581 -0.238959,2.008316 -0.04636,0.164674 -0.09576,0.310971 -0.109796,0.325106 -0.01403,0.01413 -0.159156,-0.04154 -0.322505,-0.123717 z m 8.78501,-2.215734 c -0.201268,-0.07369 -0.502319,-0.186527 -0.669004,-0.250757 -0.408049,-0.157234 -0.535886,-0.299725 -0.641296,-0.714801 -0.05438,-0.214149 -0.06272,-0.227223 -0.110106,-0.172822 -0.0282,0.03238 -0.129537,0.212417 -0.225187,0.400102 -0.192582,0.377888 -0.415534,0.640143 -0.544206,0.640143 -0.04389,0 -0.422452,-0.126821 -0.841243,-0.281812 -0.872517,-0.322924 -0.957183,-0.381455 -1.067268,-0.737844 -0.09528,-0.308461 -0.08517,-1.433531 0.01714,-1.907881 0.124877,-0.578961 0.23362,-0.894487 0.455554,-1.321777 0.264899,-0.510018 0.40372,-0.719709 0.619,-0.934989 0.202591,-0.202592 0.374383,-0.307987 0.657418,-0.403335 0.201557,-0.0679 0.217282,-0.06855 0.397937,-0.01656 0.103448,0.02977 0.369279,0.13521 0.59073,0.234303 0.221452,0.0991 0.418345,0.180173 0.43754,0.180173 0.04347,0 0.107942,-0.179109 0.107942,-0.299886 0,-0.0497 0.03191,-0.130924 0.07092,-0.180513 0.08287,-0.105341 0.119661,-0.101142 0.477992,0.05438 0.386548,0.167782 0.362322,0.102469 0.330742,0.891757 -0.015,0.375092 -0.02819,1.445471 -0.02931,2.378625 -0.002,1.675137 -0.0012,1.696642 0.06451,1.696642 0.132195,0 0.464476,-0.40911 0.784582,-0.965999 0.541854,-0.942653 0.568536,-1.015991 0.7137,-1.961539 0.103305,-0.672919 0.261684,-1.501321 0.332823,-1.740873 0.04648,-0.156521 0.05988,-0.172007 0.148776,-0.172007 0.110389,0 0.688728,0.296902 0.784521,0.402753 0.05544,0.06126 0.06272,0.126345 0.06301,0.563451 3.32e-4,0.307903 0.01382,0.507687 0.03611,0.530008 0.02555,0.02557 0.09375,-0.06198 0.238357,-0.306039 0.243272,-0.410556 0.677993,-1.005841 0.770819,-1.055523 0.05512,-0.0295 0.122546,-0.0064 0.385694,0.131573 0.175392,0.09202 0.378097,0.204697 0.450454,0.250374 0.102997,0.06502 0.131563,0.07213 0.131563,0.03273 0,-0.02768 0.0034,-0.06155 0.0077,-0.07527 0.0043,-0.01373 -0.05038,-0.05513 -0.121451,-0.092 -0.101812,-0.05284 -0.1466,-0.107324 -0.211241,-0.257001 -0.114665,-0.265498 -0.09658,-0.291397 0.203411,-0.291397 0.297849,0 0.257605,0.06917 0.483839,-0.831687 0.216226,-0.860989 0.528811,-1.898565 0.593824,-1.971098 0.07476,-0.0834 0.120781,-0.07441 0.395513,0.07724 0.292258,0.161328 0.324414,0.208311 0.279564,0.408448 -0.01817,0.08108 -0.07824,0.459691 -0.133496,0.841362 -0.05525,0.381671 -0.124761,0.855529 -0.154478,1.053018 -0.02971,0.197493 -0.0453,0.367788 -0.03464,0.378441 0.01069,0.01068 0.115605,0.02122 0.233235,0.0235 0.226748,0.0044 0.285458,0.04152 0.401098,0.25364 0.06157,0.11294 0.136238,0.46025 0.105535,0.490903 -0.03037,0.03031 -0.634014,0.02836 -0.755893,-0.0024 -0.115115,-0.02909 -0.123408,-0.0041 -0.162514,0.490666 -0.13808,1.746858 -0.142805,3.195141 -0.01198,3.67 0.03977,0.144325 0.06096,0.174525 0.122044,0.173916 0.04065,-3.99e-4 0.105456,-0.02661 0.144001,-0.05822 0.07455,-0.06114 0.468927,-0.654874 1.120965,-1.687587 l 0.399086,-0.632081 0.07826,-0.44249 c 0.170782,-0.9656 0.463229,-2.156464 0.536481,-2.184576 0.07454,-0.0286 0.54314,0.251352 0.684723,0.409064 0.07831,0.08723 0.08029,0.398917 0.0081,1.269878 -0.0652,0.786274 -0.02939,1.860538 0.05869,1.760407 0.0067,-0.0076 0.216412,-0.42555 0.466017,-0.928719 0.619313,-1.248458 1.180514,-2.311714 1.28198,-2.428839 0.06501,-0.07504 0.08458,-0.06656 0.484167,0.209861 0.388071,0.268456 0.396388,0.292531 0.370088,1.07125 -0.01056,0.31105 -0.04034,0.760161 -0.06631,0.998024 -0.05413,0.495985 -0.104131,2.088884 -0.07039,2.242523 0.01236,0.05656 0.04157,0.10283 0.06477,0.10283 0.05319,0 0.362831,-0.324613 0.539461,-0.565546 0.140936,-0.192244 0.697407,-1.076533 0.785054,-1.247532 0.02813,-0.05488 0.0966,-0.228799 0.152136,-0.386464 0.232019,-0.658682 0.892404,-1.767245 1.293796,-2.171851 0.192395,-0.193935 0.47115,-0.380253 0.67769,-0.452963 0.182152,-0.06412 0.391259,0.02104 0.708155,0.288416 l 0.26158,0.220706 -0.01535,0.302957 c -0.01792,0.353433 -0.162914,1.026192 -0.274487,1.273535 -0.147909,0.327908 -0.556055,0.673498 -1.101078,0.932328 -0.27614,0.131141 -0.261914,0.105933 -0.362379,0.642053 -0.108121,0.576997 -0.09095,1.157334 0.0445,1.503963 l 0.03521,0.0901 0.176005,-0.05222 c 0.240567,-0.07138 0.292022,-0.113325 0.715143,-0.582959 0.458894,-0.509331 0.663642,-0.763614 0.906014,-1.125209 0.34855,-0.519993 0.392755,-0.618283 0.449244,-0.998866 0.09459,-0.637265 0.285531,-1.677086 0.36042,-1.962775 0.07078,-0.270021 0.07813,-0.28233 0.173709,-0.291209 0.06,-0.0055 0.15951,0.02452 0.249505,0.07544 0.08235,0.04659 0.229462,0.124182 0.326945,0.172413 0.266023,0.131622 0.288636,0.183643 0.277564,0.638545 -0.0093,0.380357 0.01308,0.636744 0.05545,0.636321 0.01211,0 0.09424,-0.127581 0.182504,-0.283249 0.168697,-0.297526 0.688757,-1.034293 0.780409,-1.105605 0.07156,-0.05568 0.127297,-0.03573 0.556148,0.199122 0.504632,0.27635 0.685105,0.457341 0.629791,0.631617 -0.02732,0.08608 -0.130907,0.05978 -0.357694,-0.09079 -0.09477,-0.0629 -0.222054,-0.124336 -0.28287,-0.136492 -0.100241,-0.02004 -0.126022,-0.007 -0.275888,0.140561 -0.196166,0.193032 -0.494625,0.626952 -0.608796,0.885118 -0.04487,0.101439 -0.219102,0.609144 -0.387199,1.12823 -0.2898,0.894905 -0.305535,0.958439 -0.303821,1.226565 0.0023,0.370546 -0.111457,0.998689 -0.206538,1.13978 -0.03977,0.059 -0.09837,0.112308 -0.130255,0.118451 -0.09995,0.01926 -0.783991,-0.294168 -0.852728,-0.3907 -0.103834,-0.145825 -0.167711,-0.398302 -0.210515,-0.832104 l -0.04082,-0.413684 -0.206145,0.283782 c -0.203018,0.279477 -0.621083,0.795785 -0.942572,1.164068 -0.283592,0.324873 -0.643748,0.441404 -0.932823,0.30182 -0.06531,-0.03154 -0.289871,-0.17974 -0.49901,-0.329335 -0.388021,-0.277551 -0.544986,-0.443066 -0.767316,-0.809115 -0.137173,-0.225847 -0.118437,-0.233423 -0.328825,0.132981 -0.0788,0.137228 -0.20877,0.333508 -0.288836,0.436178 -0.210704,0.270213 -0.787899,0.794717 -0.874546,0.794717 -0.07312,0 -0.829949,-0.490012 -1.245107,-0.806157 -0.308256,-0.234738 -0.418431,-0.42954 -0.442417,-0.782234 -0.01973,-0.290039 0.05609,-0.955502 0.16205,-1.422315 0.06577,-0.28978 0.126396,-0.681982 0.105431,-0.681982 -0.02409,0 -0.427285,0.837411 -0.566662,1.176909 -0.08355,0.203518 -0.245583,0.639494 -0.360078,0.968842 -0.219496,0.631387 -0.492671,1.292635 -0.572867,1.386675 -0.05471,0.06414 -0.08156,0.05836 -0.366177,-0.07877 -0.299793,-0.144447 -0.384469,-0.264902 -0.545227,-0.775628 -0.07487,-0.237862 -0.150128,-0.46933 -0.167238,-0.514374 -0.02833,-0.0746 -0.05619,-0.03628 -0.312594,0.429756 -0.327328,0.594978 -0.318751,0.583142 -0.511417,0.70575 -0.131619,0.08376 -0.177389,0.09396 -0.415842,0.09266 -0.154977,-8.31e-4 -0.324045,-0.0227 -0.401013,-0.05184 -0.07319,-0.0277 -0.257545,-0.09379 -0.40968,-0.146861 -0.337619,-0.117768 -0.457288,-0.189559 -0.632129,-0.37924 -0.182624,-0.198125 -0.285962,-0.41381 -0.359957,-0.751299 -0.104684,-0.477435 -0.0728,-1.971029 0.06126,-2.86956 0.03593,-0.240803 0.0342,-0.261432 -0.02574,-0.308472 -0.104104,-0.08168 -0.306657,-0.181984 -0.36751,-0.181984 -0.153059,0 -0.544068,0.456993 -0.782854,0.914969 -0.06675,0.128019 -0.259965,0.659415 -0.429369,1.180882 -0.307576,0.946783 -0.308048,0.94876 -0.333004,1.397234 -0.03905,0.701575 -0.174342,1.163508 -0.340979,1.164136 -0.03319,0 -0.14217,-0.0372 -0.242172,-0.08294 -0.10001,-0.04574 -0.189794,-0.08316 -0.199535,-0.08316 -0.0098,0 -0.09944,-0.03867 -0.199352,-0.08594 -0.230104,-0.108856 -0.303645,-0.243411 -0.3767,-0.689235 l -0.05343,-0.326061 -0.339071,0.675516 c -0.494704,0.985562 -0.539606,1.016208 -1.157517,0.789989 z m -2.390001,-1.670023 c 0.145218,-0.230038 0.705485,-1.342539 0.814518,-1.617355 0.05541,-0.139667 0.152855,-0.358734 0.216539,-0.486813 0.18809,-0.378278 0.249921,-0.558145 0.202268,-0.588414 -0.02252,-0.01431 -0.0506,-0.02625 -0.06239,-0.02653 -0.01185,-3.32e-4 -0.02087,-0.12749 -0.02014,-0.282707 0.0012,-0.251272 -0.0084,-0.296898 -0.08749,-0.416365 l -0.0888,-0.134168 -0.137379,0.07537 c -0.22541,0.123679 -0.367857,0.291127 -0.53139,0.624674 -0.362867,0.740108 -0.460577,1.177552 -0.484516,2.169161 -0.0095,0.397327 -0.0087,0.745389 0.0022,0.77347 0.03238,0.08436 0.08255,0.0587 0.176636,-0.09034 z m 17.332353,-1.750132 c 0.400471,-0.258835 0.56308,-0.507345 0.678746,-1.037323 0.06545,-0.299857 0.09153,-0.648084 0.05156,-0.688065 -0.04198,-0.04198 -0.318968,0.27112 -0.431169,0.487399 -0.06238,0.120228 -0.191789,0.435674 -0.287586,0.700982 -0.0958,0.265309 -0.195301,0.523546 -0.221113,0.573864 -0.06256,0.121954 -0.02627,0.115566 0.209561,-0.03686 z m 6.31089,3.474096 c -0.138275,-0.04326 -0.813448,-0.403792 -1.129046,-0.602897 -0.110054,-0.06943 -0.19051,-0.15148 -0.230843,-0.235403 -0.06726,-0.139961 -0.133362,-0.75834 -0.170411,-1.594182 -0.01832,-0.413159 -0.01416,-0.473892 0.03592,-0.523962 0.0829,-0.08289 0.156756,-0.07058 0.382173,0.0637 0.171168,0.101966 0.20199,0.13468 0.20199,0.214412 0,0.284899 0.242979,1.648391 0.321247,1.802698 0.05396,0.106384 0.07729,0.11035 0.221001,0.03758 0.239166,-0.121104 0.335842,-0.283829 0.4093,-0.688916 0.06274,-0.34598 0.03914,-0.708039 -0.08927,-1.369655 -0.07673,-0.395301 -0.09688,-0.590123 -0.097,-0.937394 0,-0.396466 0.0088,-0.463797 0.09391,-0.704124 0.234295,-0.662092 0.672358,-1.100768 1.155506,-1.157125 0.21065,-0.02457 0.40251,0.04778 0.77977,0.294042 0.475632,0.310478 0.552008,0.439555 0.429119,0.725216 -0.03926,0.09125 -0.07752,0.165911 -0.08502,0.165911 -0.05578,0 -0.348478,-0.178885 -0.375599,-0.229562 -0.01863,-0.03483 -0.03092,-0.13142 -0.02731,-0.214661 0.0036,-0.08324 -0.0027,-0.160668 -0.01411,-0.172057 -0.04171,-0.04171 -0.219908,0.08511 -0.419755,0.298753 -0.229356,0.245184 -0.266708,0.30803 -0.366653,0.616935 -0.172709,0.53378 -0.1596,0.926596 0.06161,1.846345 0.07041,0.292753 0.14566,0.633329 0.167225,0.756834 0.02437,0.139627 0.05528,0.224556 0.08172,0.224556 0.05601,0 0.527163,-0.499351 0.742673,-0.787125 0.09358,-0.124967 0.261707,-0.380903 0.373605,-0.568747 0.111896,-0.187845 0.232776,-0.357232 0.268629,-0.376418 0.05433,-0.02907 0.102958,-0.0068 0.292253,0.133452 0.124889,0.09258 0.243432,0.168336 0.263419,0.168336 0.01999,0 0.05133,0.028 0.06964,0.06222 0.02755,0.05146 -0.01185,0.120305 -0.228193,0.398444 -0.605644,0.778785 -1.230966,1.431809 -1.645471,1.718369 -0.105869,0.07319 -0.254785,0.181762 -0.330927,0.241275 -0.541042,0.422866 -0.781435,0.505695 -1.141106,0.393179 z"
     id="path309"
     sodipodi:nodetypes="cscsssssssscscsssssssssscssssssssssssssscccsssssssssssssssssscsssssscssscssscsssssssssssssssssscssscsssscscssssssscssssscssssscssscsssssscsscsssscssssssssssssssssssssssssssssssscsssscscccssscsccssccccsssssssssssssssssssccsssssscsssssssscsscssss" /><path
     id="text461"
     style="font-size:36.6485px;font-family:'Maiandra GD';-inkscape-font-specification:'Maiandra GD';fill:#000000;stroke:#999999;stroke-width:0"
     d="m 67.053043,19.251983 4.825234,22.206806 c 0.160945,0.753162 0.24324,1.258074 0.24324,1.514833 0,1.129741 -0.872488,1.67799 -2.616148,1.643755 v 0.359494 h 13.319046 v -0.359494 c -1.475407,-0.08558 -2.455968,-0.325289 -2.938827,-0.718988 -0.456037,-0.410816 -0.870463,-1.336447 -1.246025,-2.774302 l -6.19536,-28.652903 c -0.160964,-0.753162 -0.243239,-1.344743 -0.243239,-1.772677 0,-2.0027252 1.567501,-3.0558833 4.706095,-3.1585872 V 7.155633 h -9.332771 l -0.521245,0.771053 z" /><path
     id="path621"
     style="font-size:36.6485px;font-family:'Maiandra GD';-inkscape-font-specification:'Maiandra GD';fill:#000000;stroke:#999999;stroke-width:0"
     d="M 62.749118,30.877624 52.366378,7.6819493 42.911,7.8135282 v 0.380276 c 0.652788,0 1.330241,0.171532 2.034564,0.510306 0.704324,0.338772 1.409717,1.3456508 2.114041,3.0225788 -0.160994,-0.137811 -0.08718,0.09078 -0.08718,0.09078 l 14.875913,33.42256 h 0.2575 l 0.03179,-0.07115 z"
     sodipodi:nodetypes="ccccscccccc" /><g
     style="fill:none"
     id="g662"
     transform="translate(-76.904098,14.391645)"><g
       id="g425"
       style="fill:#000000"
       transform="translate(-35.871158,80.765438)"><path
         style="fill:#000000;stroke:#5d0080;stroke-width:0"
         d="m 145.92516,-51.815285 c 3.06111,-4.450069 3.75668,-11.055984 2.21468,-21.033103 -1.01143,-6.544196 -3.20614,-11.30878 -6.67066,-14.481597 l -2.09073,-1.914701 1.28008,0.209701 c 5.52271,0.904726 11.16569,5.07927 13.69374,10.1303 1.8057,3.607793 2.21326,5.46386 2.21326,10.079396 0,5.803766 -1.19325,9.400646 -4.51111,13.59805 -1.36341,1.724837 -6.03854,5.237369 -6.97087,5.237369 -0.22773,0 0.151,-0.821436 0.84161,-1.825415 z"
         id="path417" /><path
         style="fill:#000000;stroke:#5d0080;stroke-width:0"
         d="m 135.60583,-81.224583 c -7.0705,-3.061333 -11.63693,-3.992717 -15.36735,-3.134349 -2.29191,0.527368 -2.01705,-0.03725 0.85769,-1.761872 4.22915,-2.537153 9.56896,-3.853336 13.11124,-3.231721 l 1.22201,0.214444 0.33982,4.06569 c 0.22614,2.705576 0.17147,3.992806 -0.16341,3.847808 z"
         id="path664" /><path
         style="fill:#000000;stroke:#5d0080;stroke-width:0"
         d="m 135.6668,-57.668912 c -6.64006,3.908123 -11.05715,5.394348 -14.86486,5.001548 -2.33939,-0.241328 -1.99714,0.285179 1.06798,1.642942 4.50921,1.997454 9.9704,2.646546 13.40927,1.593761 l 1.18634,-0.363189 -0.16306,-4.076609 c -0.10852,-2.712838 -0.32117,-3.983559 -0.63567,-3.798453 z"
         id="path666" /></g></g></svg>
