<?xml version="1.0" encoding="UTF-8" standalone="no"?>
<svg
   width="250"
   height="38"
   viewBox="0 0 250 38"
   fill="none"
   version="1.1"
   id="svg627"
   xmlns="http://www.w3.org/2000/svg"
   xmlns:svg="http://www.w3.org/2000/svg">
  <defs
     id="defs631" />
  <g
     id="g568"
     transform="matrix(1.0036195,0,0,1.0036195,-29.548654,9.9759366)"
     style="fill:#ffffff">
    <text
       xml:space="preserve"
       style="font-size:34.0394px;font-family:'Riviera Nights';-inkscape-font-specification:'Riviera Nights';text-align:center;text-anchor:middle;fill:#ffffff;stroke:#000101;stroke-width:0"
       x="140.94824"
       y="28.001169"
       id="text346"
       transform="scale(1.0991082,0.90982853)"><tspan
         id="tspan344"
         x="140.94824"
         y="28.001169"
         style="fill:#ffffff;stroke-width:0">GDA   AFRICA</tspan></text>
    <path
       style="fill:#ffffff;stroke-width:0.249818"
       d="m 131.45897,9.2740042 c -1.8973,-2.74518 -4.60352,-6.6290516 -6.01381,-8.63082965 l -2.56418,-3.63960295 1.70077,-1.731787 c 1.47372,-1.500603 1.97392,-1.834484 3.74694,-2.501044 2.0134,-0.756927 2.12183,-0.769247 6.76788,-0.769247 4.51967,0 4.80412,0.02975 6.64796,0.696358 1.61757,0.584762 2.2247,0.980422 3.78853,2.468917 l 1.86226,1.772556 -5.99689,8.588696 c -3.29829,4.7237844 -6.1078,8.6221134 -6.24335,8.6629584 -0.13556,0.04084 -1.7988,-2.171796 -3.69611,-4.9169748 z m 6.25158,-3.7251236 2.1904,-6.33055605 -4.68833,-0.06892 c -2.57857,-0.0379 -4.72787,-0.02825 -4.77621,0.02144 -0.0712,0.0732 1.30011,4.09528405 4.41557,12.95031445 0.32281,0.917488 0.0504,1.543838 2.85857,-6.5722654 z m -5.89494,-0.130224 c -1.09149,-3.112073 -2.07791,-5.82977205 -2.19205,-6.03933005 -0.1722,-0.31614 -5.16765,-1.91379795 -5.36143,-1.71470195 -0.0334,0.03434 2.0632,3.10289795 4.65911,6.819069 2.59592,3.7161756 4.75562,6.7199154 4.79936,6.6749804 0.0438,-0.04493 -0.81351,-2.6279418 -1.90499,-5.7400174 z m 10.44106,-2.275387 c 2.09951,-2.99435305 3.79452,-5.46941 3.76669,-5.500129 -0.0979,-0.108008 -4.95658,1.280861 -5.2312,1.49534795 -0.15288,0.119402 -0.57967,1.097814 -0.94843,2.17424505 -0.36876,1.076432 -1.26957,3.695399 -2.0018,5.8199296 -0.73223,2.12453 -1.33132,3.9477268 -1.33132,4.0515498 0,0.103822 0.43397,-0.437955 0.96437,-1.2039488 0.53041,-0.765994 2.68217,-3.8426414 4.78169,-6.8369946 z m -2.29548,-4.855212 c -8e-5,-0.09383 -0.1301,-0.749039 -0.28893,-1.456028 l -0.28879,-1.285427 h -4.24146 -4.24146 l -0.27572,1.125019 c -0.46857,1.911875 -0.78508,1.787037 4.53063,1.787037 2.64324,0 4.80582,-0.07676 4.80573,-0.170601 z m -10.27443,-0.303471 c 0.0714,-0.191104 0.20429,-0.858012 0.29537,-1.482023 l 0.1656,-1.13457 -1.68615,-0.643936 -1.68614,-0.643944 -1.36459,1.302994 c -0.75051,0.716651 -1.33997,1.343083 -1.30989,1.39209 0.0496,0.08084 4.92366,1.496773 5.29755,1.538966 0.0872,0.0098 0.21688,-0.138473 0.28825,-0.329577 z m 13.84795,-0.409674 c 1.08443,-0.296017 2.1299,-0.592754 2.32327,-0.659414 0.43437,-0.149742 -1.86091,-2.63367 -2.43723,-2.637571 -0.20843,-0.0016 -1.05556,0.24155 -1.88251,0.539917 l -1.50354,0.542481 0.22565,1.169333 c 0.33265,1.723803 0.39654,1.849369 0.87016,1.71039 0.23789,-0.06979 1.31978,-0.369119 2.4042,-0.665136 z m -2.80366,-3.172036 c 0.59314,-0.211227 1.2448,-0.451843 1.44813,-0.53471 0.22366,-0.09115 -0.30641,-0.389551 -1.34192,-0.755441 -1.55081,-0.547973 -2.1065,-0.603564 -5.91503,-0.591726 -3.80226,0.01179 -4.34457,0.06956 -5.68219,0.605043 l -1.47876,0.591979 0.73938,0.285239 c 0.40666,0.156879 0.96119,0.389677 1.2323,0.517317 0.2711,0.127648 2.61393,0.239793 5.20628,0.249218 3.609,0.01314 4.96606,-0.07288 5.79181,-0.366919 z"
       id="path414" />
  </g>
</svg>
